<svg width="24" height="24" viewBox="0 0 24 24" fill="none" xmlns="http://www.w3.org/2000/svg">
<path d="M8.28431 7.91818L8.35355 7.97604L11.771 11.3936L15.1889 7.97604C15.3842 7.78077 15.7008 7.78077 15.896 7.97604C16.0696 8.1496 16.0889 8.41903 15.9539 8.6139L15.896 8.68314L12.478 12.1006L15.896 15.5185C16.0913 15.7138 16.0913 16.0304 15.896 16.2256C15.7225 16.3992 15.453 16.4185 15.2582 16.2835L15.1889 16.2256L11.771 12.8076L8.35355 16.2256C8.15829 16.4209 7.84171 16.4209 7.64645 16.2256C7.47288 16.052 7.4536 15.7826 7.58859 15.5878L7.64645 15.5185L11.064 12.1006L7.64645 8.68314C7.45118 8.48788 7.45118 8.1713 7.64645 7.97604C7.79832 7.82417 8.02358 7.79042 8.20807 7.87479L8.28431 7.91818Z" fill="black"/>
</svg>
